<?xml version="1.0" encoding="UTF-8" standalone="no"?>
<!-- Uploaded to: SVG Repo, www.svgrepo.com, Generator: SVG Repo Mixer Tools -->

<svg
   fill="#000000"
   width="736.9325"
   height="799.99231"
   viewBox="0 0 1768.638 1919.9815"
   version="1.1"
   id="svg1"
   xmlns="http://www.w3.org/2000/svg"
   xmlns:svg="http://www.w3.org/2000/svg">
  <defs
     id="defs1" />
  <path
     d="m 1768.6379,637.74163 c 0,-130.027 -43.627,-236.373 -116.054,-319.68 11.627,-30.187 50.347,-151.36 -11.2,-315.3070005 0,0 -94.72,-31.9999995 -310.4,122.1340005 -90.133,-26.454 -186.773,-39.68 -282.773,-40.107 -96,0.427 -192.64,13.653 -282.667,40.107 C 549.7569,-29.24537 454.9309,2.7546295 454.9309,2.7546295 393.3839,166.70163 432.2109,287.87463 443.8369,318.06163 c -72.32,83.307 -116.266,189.653 -116.266,319.68 0,456.53297 263.68,558.71997 514.453,588.79997 0,0 -180.267,111.68 -180.267,299.413 -64.32,30.507 -336.533,123.947 -437.333,-58.133 0,0 -59.627,-114.347 -173.013004,-122.773 0,0 -110.294,-1.494 -7.787,72.426 0,0 74.027004,36.694 125.440004,174.294 0,0 57.173,289.92 489.067,159.68 4.373,2.24 1.6,140.266 1.6,168.533 h 777.173 c 0,0 1.28,-277.013 1.28,-365.12 0,-216.64 -144.64,-292.48 -185.28,-329.28 251.627,-29.44 515.733,-130.133 515.733,-587.83997"
     fill-rule="evenodd"
     id="path1"
     style="fill:#919091;fill-opacity:1" />
</svg>
